<?xml version='1.0' encoding='utf-8'?>
<svg xmlns="http://www.w3.org/2000/svg" viewBox="0 0 800 533" preserveAspectRatio="xMidYMid meet" role="img" aria-label="Mapa de las provincias de Piura"><path d="M 461.7315 216.3478 L 461.077 216.2587 L 460.0351 215.4217 L 458.5124 215.8491 L 458.1651 214.7271 L 457.5106 213.7832 L 458.0048 211.6995 L 456.4019 210.3993 L 456.0813 208.8321 L 455.8008 208.0841 L 455.4803 207.9238 L 454.2781 210.6843 L 454.4651 211.8419 L 454.2915 212.2694 L 453.2362 212.8215 L 452.3547 213.9435 L 450.498 214.5668 L 449.5496 215.671 L 449.4828 218.2534 L 448.5078 219.8563 L 447.7197 220.6043 L 447.4392 220.3015 L 446.1969 220.1413 L 445.1017 220.9961 L 444.0731 222.3675 L 441.6421 223.2045 L 441.0277 222.8305 L 439.7187 221.2098 L 437.4613 221.2989 L 436.7667 219.8919 L 436.1523 219.5179 L 434.8165 220.355 L 433.0133 219.8741 L 431.5707 221.1386 L 431.0498 221.2455 L 428.9928 218.6809 L 427.6036 218.6987 L 426.8556 217.8438 L 425.6267 217.7904 L 425.0257 217.3273 L 424.6517 216.5437 L 424.5582 213.6051 L 424.1708 212.7858 L 424.0239 211.6104 L 425.0123 208.4047 L 425.6668 207.4073 L 425.7336 206.3922 L 424.4112 204.6824 L 422.5679 204.0235 L 421.4459 201.3342 L 421.5928 200.4081 L 421.3257 199.3573 L 420.0968 197.986 L 419.9232 197.3805 L 420.9116 195.3858 L 423.169 192.6253 L 423.5697 191.4142 L 423.5697 190.9333 L 423.1289 190.1141 L 423.5697 189.0989 L 423.3293 188.1016 L 422.3408 187.4961 L 421.3658 187.4426 L 420.5643 186.5521 L 421.5394 183.382 L 420.7647 181.886 L 423.5029 180.9599 L 424.5582 180.2297 L 425.1592 179.4995 L 425.8405 177.9323 L 426.0542 177.0952 L 425.6267 176.7212 L 425.3997 175.0471 L 424.8921 174.6553 L 424.7051 174.0854 L 424.2509 173.9785 L 423.3293 172.4825 L 423.6098 171.0221 L 425.6802 168.9384 L 429.5805 168.7246 L 430.2751 168.0301 L 431.1967 167.9232 L 432.5191 167.0505 L 432.8263 166.4984 L 433.6277 163.3283 L 434.6162 162.4378 L 435.2306 162.5803 L 434.91 161.7967 L 434.9368 159.0896 L 433.5209 157.5045 L 433.1602 156.7209 L 431.2101 155.4564 L 430.1014 156.0085 L 428.1245 156.0441 L 426.2679 156.6318 L 424.7452 156.4359 L 422.8751 156.6675 L 422.2607 157.1483 L 422.1271 158.021 L 421.5528 158.306 L 421.1387 159.1074 L 420.5777 158.68 L 419.8965 158.8937 L 419.2152 157.6826 L 419.3355 156.7565 L 419.1485 155.8304 L 418.4004 154.9221 L 418.16 153.7823 L 417.5055 153.2836 L 417.1716 152.5712 L 416.8644 150.9505 L 416.1164 149.0449 L 416.103 147.4777 L 415.3149 145.9994 L 412.6435 145.946 L 411.5749 145.6611 L 410.8002 145.109 L 408.9569 145.7857 L 407.6478 145.6254 L 406.5926 144.6281 L 406.8598 144.076 L 408.5828 142.4553 L 409.1305 140.9415 L 409.1839 140.1757 L 409.1706 139.4989 L 408.7966 139.392 L 408.8901 138.9468 L 408.3023 137.5576 L 408.2489 135.8657 L 407.6078 135.6342 L 407.4341 135.8301 L 407.4208 135.3314 L 407.0601 135.189 L 407.1937 134.8328 L 406.5659 134.1916 L 406.3388 133.4436 L 406.7262 131.8585 L 406.4991 131.1818 L 406.6193 130.6653 L 406.2453 130.22 L 407.2204 128.9912 L 407.6478 129.1871 L 407.7681 128.6884 L 407.3406 128.2076 L 407.6211 127.4061 L 407.1937 126.1416 L 407.4742 125.6786 L 407.3273 125.269 L 407.5276 124.8771 L 406.9399 124.236 L 406.9132 123.6839 L 406.606 123.9332 L 406.3655 123.3633 L 406.1118 123.3633 L 406.2854 122.2057 L 407.4876 121.6892 L 407.6078 120.959 L 407.3406 120.3713 L 406.9666 120.4781 L 406.232 119.5877 L 405.8045 119.4096 L 405.9381 117.8779 L 404.923 117.219 L 404.6424 116.3641 L 403.8811 116.1682 L 404.2417 117.0943 L 403.9879 117.4683 L 403.7208 116.7915 L 402.9194 116.8628 L 402.7324 116.3641 L 402.1714 116.2216 L 401.41 115.0284 L 400.8623 114.9571 L 400.2746 115.4914 L 400.0475 116.5244 L 399.8338 116.6847 L 399.0457 116.1504 L 398.458 114.4228 L 398.1909 114.4585 L 397.9237 115.2955 L 397.1624 115.9189 L 396.6281 115.1887 L 396.9487 113.4967 L 397.7902 112.909 L 397.8302 111.7514 L 398.0707 111.2705 L 398.7519 111.2705 L 398.9923 110.665 L 399.4064 110.5047 L 400.4883 111.8048 L 401.0627 111.8939 L 401.6905 110.1485 L 402.345 110.2554 L 402.9194 109.8814 L 402.906 108.6703 L 403.4136 108.0292 L 404.5356 107.4949 L 404.9897 106.1948 L 405.11 105.0193 L 405.3771 104.8946 L 405.7377 105.1796 L 405.7778 105.8029 L 406.0583 106.2482 L 406.7395 105.5892 L 406.606 104.8056 L 406.2186 104.4672 L 407.1269 103.6302 L 406.8063 102.2944 L 406.9265 101.5108 L 407.2738 101.6177 L 407.8482 102.5438 L 408.2756 102.1163 L 407.9283 101.7245 L 408.0085 101.2793 L 408.8366 100.8518 L 409.5579 101.2258 L 410.0789 100.9765 L 409.7049 99.7833 L 409.3709 99.5161 L 408.7832 99.5161 L 408.5828 99.1955 L 408.9435 98.3763 L 409.6247 98.6256 L 410.5597 98.2872 L 411.0005 98.4297 L 411.1742 97.753 L 411.0005 96.7556 L 411.3077 95.0637 L 411.9756 93.5677 L 412.2027 92.036 L 413.2846 90.2016 L 413.9925 90.4332 L 413.9925 92.2854 L 415.168 92.8019 L 415.5153 92.5525 L 415.6221 91.7867 L 416.103 91.5017 L 416.9579 89.5605 L 417.4654 89.7208 L 418.0532 89.4536 L 418.1333 90.2729 L 417.5723 90.8072 L 417.9864 91.3949 L 419.7495 91.0209 L 420.1503 91.3593 L 420.4842 91.1099 L 420.8983 91.6086 L 421.6596 91.7689 L 421.6329 90.825 L 422.2206 90.4866 L 423.1556 91.0209 L 423.8769 92.2141 L 424.9722 92.3566 L 426.2011 93.2471 L 426.4549 93.728 L 426.6686 93.5321 L 427.9108 93.8704 L 428.4184 95.4377 L 428.8592 95.9186 L 428.9527 97.0584 L 430.8895 98.5366 L 430.9296 99.4449 L 431.4639 100.1573 L 431.544 100.7272 L 432.3187 100.6916 L 433.0935 101.582 L 434.3891 102.2054 L 434.91 103.7548 L 435.7916 104.9125 L 436.74 105.5002 L 437.3678 106.4619 L 439.1443 106.1413 L 441.188 109.0265 L 441.5753 109.0443 L 442.5771 108.2429 L 443.6724 109.1868 L 444.8612 109.0799 L 445.7161 108.6525 L 446.8114 107.3346 L 447.1186 107.388 L 447.2655 107.8154 L 448.8417 108.7772 L 449.4561 109.6855 L 450.7785 110.3444 L 451.6734 111.698 L 453.5435 112.4282 L 454.3582 113.5502 L 454.425 114.5831 L 454.8925 114.7078 L 455.3868 115.8832 L 455.6806 116.0791 L 455.5203 117.6286 L 455.6806 117.7354 L 455.5604 118.3232 L 455.7608 119.0712 L 456.629 119.9973 L 457.4438 121.618 L 457.938 122.0632 L 457.8979 122.366 L 458.4456 122.4194 L 460.5694 124.9662 L 460.8365 125.6608 L 462.9203 125.5539 L 463.4679 126.2307 L 463.7618 126.2307 L 465.6318 125.447 L 467.9693 125.2511 L 468.8509 124.4497 L 470.0798 124.3607 L 470.2935 123.862 L 471.0415 123.7551 L 471.3487 123.2386 L 472.6043 122.5619 L 472.8046 122.1344 L 473.7263 121.9385 L 475.2357 122.6331 L 476.1306 121.1905 L 476.9721 120.87 L 477.6801 120.211 L 477.8136 119.2137 L 478.2143 119.0356 L 478.6017 118.341 L 478.7486 118.5725 L 479.7104 118.3054 L 480.1378 117.5752 L 480.632 117.5217 L 480.7923 117.0409 L 481.3132 117.219 L 482.1681 115.9189 L 483.1298 116.3463 L 483.6508 115.7942 L 484.0648 116.3285 L 485.7479 116.8093 L 487.2839 117.967 L 487.511 118.8396 L 488.1522 118.8931 L 488.1655 119.552 L 488.4327 119.6589 L 488.446 120.0329 L 489.528 119.8726 L 489.381 120.5672 L 490.0222 120.7097 L 489.7684 121.7426 L 490.3027 122.1166 L 490.7034 122.0632 L 490.5565 123.2386 L 490.9572 123.4524 L 491.024 123.9688 L 492.2929 125.4292 L 491.959 125.9457 L 492.2528 126.8184 L 492.0926 127.2458 L 492.4532 127.4774 L 492.9207 128.35 L 493.5218 127.9582 L 493.8824 128.5816 L 493.829 129.3474 L 494.2832 128.9734 L 494.5102 129.1515 L 494.39 129.8104 L 494.6438 130.3091 L 494.8174 130.3981 L 494.9243 129.9173 L 495.2182 129.8104 L 496.1932 130.0776 L 496.4203 130.6475 L 497.0348 131.164 L 497.0748 132.2504 L 498.838 132.1791 L 499.3322 132.8915 L 499.6661 132.0723 L 500.1604 132.2504 L 500.0535 131.6448 L 500.2138 131.4489 L 500.3874 131.6448 L 500.8416 131.1818 L 501.0553 130.505 L 501.3759 130.505 L 501.5228 130.8612 L 502.2307 130.6475 L 502.2575 130.9502 L 502.6448 131.1996 L 503.4462 131.3599 L 503.4997 131.9654 L 504.3011 132.2504 L 504.635 132.7312 L 505.0491 134.3163 L 505.2094 137.0768 L 505.8773 139.018 L 505.7437 139.5167 L 506.0108 139.8195 L 505.5834 140.6031 L 503.9538 141.4224 L 503.6733 142.0635 L 504.3545 144.6281 L 504.2744 147.0146 L 504.6484 148.5997 L 504.4748 149.8642 L 504.782 150.4519 L 505.3697 150.5944 L 505.4899 151.1286 L 505.8906 151.3958 L 506.0242 151.841 L 506.3581 151.8588 L 506.9859 152.6959 L 506.9993 153.337 L 507.8274 154.7084 L 507.6271 156.0441 L 507.9343 156.151 L 507.9076 156.7921 L 508.2415 157.3264 L 508.0946 158.9649 L 508.3884 159.1964 L 508.4953 159.7664 L 508.4152 160.7815 L 508.709 161.8857 L 508.5354 162.42 L 508.6022 163.5064 L 509.5105 165.1093 L 509.9379 166.3738 L 511.7545 168.4041 L 512.4758 169.5973 L 512.409 170.8262 L 512.596 171.6989 L 516.9772 186.57 L 517.6851 186.9262 L 517.7252 187.1933 L 517.1107 189.5976 L 517.5916 191.3073 L 517.231 195.0296 L 516.8035 196.7215 L 514.7866 200.4615 L 512.9166 202.759 L 512.2353 203.1686 L 510.2184 203.0261 L 509.4303 204.0235 L 509.4704 208.5649 L 508.7624 210.0253 L 507.3866 212.0378 L 507.4267 212.6968 L 507.9477 213.6051 L 507.9477 214.2106 L 506.7321 216.419 L 506.3982 218.289 L 505.3697 220.8715 L 505.6502 222.1359 L 505.6101 223.258 L 506.278 225.2526 L 506.2914 226.3925 L 505.6101 227.5857 L 505.156 230.6668 L 504.2343 231.2545 L 503.7668 232.7683 L 503.4863 234.1931 L 503.8737 235.6357 L 502.6448 235.0124 L 500.7347 231.9491 L 499.8799 231.486 L 499.0383 231.7532 L 498.3571 230.649 L 497.5156 230.7024 L 496.9546 229.9366 L 496.407 229.7941 L 495.1647 229.9366 L 494.2297 228.9571 L 492.8539 229.4557 L 492.4666 229.0283 L 492.3063 227.3364 L 491.585 226.9802 L 490.3828 226.8555 L 490.0355 227.1761 L 490.1825 228.494 L 489.6215 229.5982 L 489.755 230.8271 L 489.5012 231.6819 L 486.6027 234.7274 L 485.0933 235.048 L 484.5858 235.6713 L 484.2919 235.4576 L 484.145 235.7426 L 483.8511 235.7069 L 483.397 235.2439 L 482.9695 235.2439 L 482.7024 234.674 L 483.1699 233.3204 L 483.0363 232.8574 L 482.7959 232.7683 L 480.9659 234.1041 L 479.6169 233.7123 L 479.0559 233.3561 L 477.8938 231.5751 L 477.0923 231.1833 L 475.9837 229.1352 L 474.8884 228.1734 L 474.4342 227.4076 L 473.7931 227.1939 L 473.566 226.7843 L 473.005 226.8377 L 472.631 226.5349 L 472.0299 224.9677 L 472.2971 220.8893 L 471.9231 219.8919 L 470.2801 221.1742 L 468.8509 221.1386 L 467.622 219.9097 L 467.5018 219.2508 L 466.0726 217.167 L 464.7903 215.9382 L 464.3228 215.1189 L 463.4679 215.671 L 461.7315 216.3478 Z" transform="matrix(1.0499999523162842,0,0,1.0499999523162842,-20.000028610229492,-13.324969291687012)" id="ayabaca" class="province-map-path"><title>Ayabaca</title></path>
<path d="M 522.0129 380.4108 L 521.6522 380.5889 L 521.7992 381.141 L 521.3851 381.5684 L 521.3717 382.7973 L 521.0645 382.8863 L 520.5035 383.7768 L 518.8338 384.2577 L 516.5097 385.9496 L 513.6512 389.6362 L 511.2068 386.6442 L 507.9877 385.0769 L 507.5202 382.9576 L 507.1195 382.2808 L 505.5701 381.1766 L 504.5015 380.8739 L 504.221 380.3574 L 503.2726 379.9121 L 502.952 380.3752 L 502.5112 380.0368 L 501.7365 380.1793 L 501.456 379.9477 L 501.082 380.767 L 500.6546 380.5889 L 500.2405 379.3066 L 499.3055 379.2888 L 498.5708 380.3039 L 498.6376 380.8204 L 498.0633 381.0698 L 497.6225 380.6779 L 497.569 381.5506 L 497.1149 381.5506 L 496.6875 382.3877 L 496.1932 382.5658 L 495.7525 383.8303 L 494.4167 383.1357 L 493.3481 383.7768 L 492.4933 383.1535 L 491.2911 383.8659 L 490.2359 383.0466 L 489.8619 383.2604 L 489.5413 383.9371 L 488.1655 381.1232 L 488.2991 380.1793 L 487.9785 379.5381 L 487.9785 377.401 L 487.7381 376.083 L 487.2439 375.5131 L 486.0016 374.872 L 486.1352 372.7348 L 485.6009 371.5416 L 485.5876 370.562 L 485.1334 369.6715 L 484.5457 369.3688 L 484.8128 368.5139 L 485.5341 368.4605 L 485.7345 367.4988 L 485.7746 366.3411 L 485.267 364.4533 L 486.2154 363.6162 L 486.4959 362.8148 L 486.9367 359.7872 L 486.6428 358.8967 L 486.1085 358.8611 L 485.4273 359.3953 L 484.9598 360.7311 L 484.332 361.3544 L 482.7024 362.1559 L 481.6071 364.1149 L 481.3132 365.2191 L 480.1512 365.6109 L 478.2811 367.57 L 477.6801 367.7481 L 476.6248 367.5166 L 475.77 366.6795 L 474.8216 366.3768 L 474.2873 365.9137 L 473.1653 366.163 L 471.2418 365.9493 L 471.0014 365.1657 L 471.135 363.9546 L 470.6007 362.4052 L 470.6675 361.6216 L 471.1083 360.8557 L 471.0148 358.9679 L 471.7494 358.113 L 471.5491 356.8307 L 472.6577 355.7087 L 473.8064 350.7933 L 473.5794 349.7247 L 473.9934 348.6917 L 473.2989 347.5163 L 471.4689 345.3969 L 470.3736 344.7914 L 470.2401 343.4557 L 468.6505 342.4761 L 467.9693 341.4788 L 470.2267 338.6648 L 470.2534 337.151 L 468.8108 337.062 L 467.3682 334.6755 L 466.7672 334.2124 L 465.5116 333.9097 L 464.7101 332.1109 L 464.2026 331.7903 L 462.199 331.8794 L 461.2773 333.0904 L 460.6629 335.2632 L 460.4358 335.3879 L 460.0351 333.874 L 459.4474 333.037 L 459.2337 331.6834 L 458.8463 331.3985 L 458.3654 331.6656 L 458.2986 330.6683 L 457.6308 328.9408 L 458.5791 325.7706 L 458.6593 324.0431 L 461.5979 319.0029 L 462.4127 318.1124 L 462.7065 316.8301 L 464.6968 317.0439 L 465.9791 316.7233 L 466.4466 315.441 L 468.4502 313.0367 L 468.6372 312.5736 L 468.6372 311.2379 L 469.4386 310.2049 L 469.7993 309.0473 L 470.6141 308.5308 L 471.135 307.6225 L 471.5758 305.9484 L 471.5891 304.3099 L 472.3505 302.6358 L 472.5375 301.3535 L 473.9934 303.2057 L 474.5812 305.3785 L 475.7032 306.4827 L 478.0808 309.7241 L 478.3613 311.1845 L 480.0577 310.8283 L 480.4049 311.2735 L 481.193 311.5407 L 481.7674 310.0447 L 482.7024 309.7775 L 482.7158 309.1185 L 483.0363 308.4774 L 483.063 306.732 L 482.7158 305.7703 L 483.2233 303.7934 L 483.958 303.0811 L 483.7042 301.4782 L 482.2883 300.3918 L 481.4602 300.8727 L 480.0042 300.4808 L 479.2696 299.5013 L 476.3043 298.0587 L 474.0335 297.8806 L 473.3389 297.4888 L 471.6426 295.6722 L 471.1617 295.7435 L 470.6675 296.3134 L 469.5722 296.1175 L 467.6888 294.2474 L 467.5552 293.4816 L 467.1011 292.6802 L 467.1946 290.5786 L 467.622 289.6525 L 467.5152 288.4949 L 469.9195 286.429 L 470.4938 284.9508 L 471.0816 284.274 L 471.6559 284.185 L 471.9631 283.8288 L 472.6043 284.0069 L 473.1787 283.5794 L 473.8732 283.5616 L 474.875 283.8466 L 475.5429 284.9864 L 476.3443 285.3426 L 479.136 284.4877 L 481.1663 282.1903 L 481.527 280.997 L 481.5002 278.8955 L 482.2616 278.379 L 483.21 276.6158 L 481.6739 275.4226 L 480.3114 273.1429 L 480.0443 270.6496 L 480.3649 269.7769 L 479.9107 267.8713 L 479.5234 267.1767 L 477.9873 266.2684 L 477.827 263.7928 L 476.7985 262.19 L 476.4779 260.1953 L 475.8902 258.5034 L 474.8216 256.5799 L 474.7415 255.9031 L 473.9133 254.8702 L 474.4209 254.7455 L 474.9552 254.0509 L 475.7299 253.9263 L 476.144 252.8933 L 475.5963 251.0233 L 475.1689 250.5246 L 474.1404 250.0438 L 473.4859 249.2601 L 473.6194 247.3367 L 474.1404 246.0722 L 474.5545 244.1665 L 474.1804 242.9021 L 474.5678 241.7979 L 474.3675 239.8388 L 474.5545 239.073 L 475.7967 236.9358 L 476.7985 236.0631 L 477.8671 234.2287 L 478.0941 234.2287 L 479.4699 236.0809 L 480.0844 238.6099 L 481.0594 238.9483 L 481.4735 239.6251 L 481.2598 240.4265 L 481.2598 241.9047 L 480.7656 243.0089 L 481.0594 243.8816 L 481.567 243.561 L 481.8342 242.7062 L 483.3836 240.4443 L 482.2349 238.4853 L 482.2883 237.9688 L 482.836 237.5057 L 483.5973 237.4345 L 483.9045 236.4193 L 483.8511 235.7069 L 484.145 235.7426 L 484.2919 235.4576 L 484.5858 235.6713 L 485.0933 235.048 L 486.6027 234.7274 L 489.5012 231.6819 L 489.755 230.8271 L 489.6215 229.5982 L 490.1825 228.494 L 490.0355 227.1761 L 490.2225 226.8555 L 491.585 226.9802 L 492.3063 227.3364 L 492.4666 229.0283 L 492.8539 229.4557 L 494.2297 228.9571 L 495.1647 229.9366 L 496.407 229.7941 L 496.9546 229.9366 L 497.5156 230.7024 L 498.3571 230.649 L 499.0383 231.7532 L 499.8799 231.486 L 500.7347 231.9491 L 502.6448 235.0124 L 503.8737 235.6357 L 503.4863 234.1931 L 503.7668 232.7683 L 504.2343 231.2545 L 505.156 230.6668 L 505.6101 227.5857 L 506.2914 226.3925 L 506.278 225.2526 L 505.6101 223.258 L 505.6502 222.1359 L 505.3697 220.8715 L 506.3982 218.289 L 506.7321 216.419 L 507.9477 214.2106 L 507.9477 213.6051 L 507.4267 212.6968 L 507.3866 212.0378 L 508.7624 210.0253 L 509.4704 208.5649 L 509.4303 204.0235 L 510.2184 203.0261 L 512.2353 203.1686 L 512.9166 202.759 L 514.7866 200.4615 L 516.8035 196.7215 L 517.231 195.0296 L 517.5916 191.3073 L 517.1107 189.5976 L 517.6851 186.9262 L 518.5133 186.6768 L 520.0093 186.8015 L 520.8641 187.6564 L 521.0244 188.3687 L 521.4652 188.9208 L 521.4118 190.3278 L 522.2399 192.5362 L 522.1598 192.9102 L 522.6006 194.0322 L 522.6807 195.3501 L 522.9479 195.7063 L 524.0966 196.5434 L 524.4706 196.5256 L 524.5775 196.1694 L 524.9381 196.2406 L 525.1118 195.9557 L 525.3789 196.2941 L 525.2854 196.7215 L 525.4858 197.3626 L 526.5944 198.1106 L 526.9417 198.9833 L 528.0904 199.0189 L 528.224 198.4134 L 528.7984 198.6093 L 528.8518 199.3751 L 529.5998 200.7821 L 529.4395 201.2808 L 529.5597 201.9575 L 529.8536 201.5123 L 531.0825 205.0742 L 533.0861 208.1375 L 534.2882 210.8268 L 534.8492 210.9693 L 537.5207 210.5062 L 540.2055 209.6157 L 541.2073 209.9541 L 541.608 211.0227 L 541.4344 212.3762 L 540.3658 214.6737 L 538.095 216.5081 L 537.6008 219.4823 L 536.7192 222.9018 L 536.5857 226.3747 L 536.1449 226.3568 L 534.9694 224.0238 L 533.7539 223.8457 L 533.1796 223.2758 L 532.4449 224.5937 L 532.7388 226.7843 L 532.4182 228.3515 L 532.7521 229.6516 L 532.2045 232.0559 L 530.655 235.9741 L 529.7601 236.7221 L 527.0352 237.3811 L 525.8331 238.3606 L 524.8847 240.5868 L 524.1367 241.7088 L 524.1233 245.7338 L 523.362 246.4106 L 522.1732 246.6777 L 521.3717 247.7107 L 520.8374 247.7463 L 519.2746 250.4712 L 520.0093 252.0741 L 520.3031 254.2647 L 522.2934 256.6155 L 523.2417 258.5034 L 523.1482 260.4268 L 523.4287 261.5132 L 523.4154 262.4749 L 522.5071 264.3984 L 521.5854 265.5382 L 521.9728 267.1945 L 521.3316 268.0494 L 522.4937 268.7618 L 523.5356 270.1153 L 523.7493 271.4866 L 525.1118 271.8963 L 525.9266 273.0539 L 525.606 275.2089 L 526.8215 280.5162 L 527.3024 281.4066 L 528.1839 281.656 L 528.5579 282.0834 L 528.3442 283.6507 L 528.9186 285.1645 L 528.9453 287.4976 L 529.1857 288.8511 L 528.9052 290.0444 L 529.0388 292.8227 L 529.8402 293.8022 L 530.3612 294.942 L 529.907 298.5218 L 530.7886 300.3206 L 531.3095 302.155 L 532.2445 303.1523 L 532.0175 304.0428 L 532.5785 305.6278 L 532.4449 306.5539 L 533.0593 307.391 L 533.0727 308.1568 L 533.42 308.7445 L 532.4048 309.9734 L 531.6969 310.4365 L 528.9319 309.8844 L 528.1439 309.3857 L 527.3291 310.9708 L 525.4991 312.1462 L 524.7378 311.2201 L 523.4287 311.1489 L 522.5338 310.7036 L 520.7172 311.0064 L 519.4082 310.0803 L 517.8855 309.8487 L 516.4295 312.1106 L 516.6967 313.8737 L 517.1642 314.4436 L 517.1107 315.0492 L 518.2194 316.7589 L 518.5934 317.7741 L 519.101 320.7127 L 518.767 321.2826 L 518.7804 321.8703 L 519.9826 323.5978 L 519.8891 324.3637 L 519.4483 324.987 L 519.4082 326.6967 L 518.8472 329.0654 L 518.9273 330.5792 L 519.2346 331.0245 L 519.1678 331.8615 L 518.5667 332.8945 L 518.5667 333.5178 L 518.2328 334.0165 L 518.5133 334.7645 L 518.2995 335.5303 L 518.4865 336.0646 L 518.019 336.8839 L 517.9523 339.1457 L 516.5497 341.2651 L 516.336 342.298 L 516.3093 343.5269 L 516.6833 345.0407 L 516.2692 347.1601 L 516.4429 348.3711 L 516.3227 349.9562 L 516.1357 350.2412 L 516.523 353.0729 L 516.4429 353.9456 L 516.5765 354.5689 L 517.2577 355.5128 L 517.3111 356.4746 L 517.792 357.8993 L 518.2995 358.5939 L 518.727 358.6117 L 519.475 359.3775 L 519.5551 361.1407 L 519.2613 361.5325 L 520.2096 365.0945 L 521.3984 366.7864 L 521.8392 366.8932 L 521.7992 367.6412 L 522.1865 367.8728 L 522.1732 368.3714 L 522.9746 368.9414 L 522.9479 369.2441 L 522.3602 369.7072 L 522.6941 370.8826 L 522.5605 372.0402 L 524.3771 373.75 L 524.2836 375.4063 L 525.0183 376.0118 L 524.0432 377.2229 L 522.7074 378.7367 L 521.9862 380.1258 L 522.0129 380.4108 Z" transform="matrix(1.0499999523162842,0,0,1.0499999523162842,-20.000028610229492,-13.324969291687012)" id="huancabamba" class="province-map-path"><title>Huancabamba</title></path>
<path d="M 455.6806 323.3663 L 455.7741 322.5293 L 455.0929 321.1045 L 454.7857 319.1098 L 455.0261 318.2371 L 454.198 316.7767 L 454.425 315.1204 L 454.2781 314.319 L 455.6272 311.2201 L 454.612 309.7419 L 453.6102 309.2254 L 453.2629 308.3349 L 452.5684 307.6225 L 452.2879 305.521 L 451.4464 304.025 L 449.8301 302.2796 L 449.2958 302.3509 L 449.2958 303.4194 L 448.855 304.5058 L 446.8247 305.7525 L 446.4374 306.643 L 445.2085 306.7677 L 445.0349 307.676 L 444.4338 308.7624 L 443.245 308.6199 L 442.1497 312.7873 L 441.8024 316.2959 L 441.3082 318.7002 L 441.3883 319.6263 L 440.7739 319.8578 L 440.3465 320.3921 L 439.732 320.4277 L 438.5566 319.9647 L 435.8718 320.9798 L 435.431 319.929 L 434.4025 319.466 L 433.414 318.5399 L 432.3321 318.344 L 431.9848 317.9344 L 431.5841 318.1837 L 430.8494 318.0412 L 428.926 316.937 L 426.2412 316.937 L 425.1592 316.5808 L 424.4246 313.8737 L 422.3008 311.2379 L 421.8066 308.9939 L 419.1351 307.4444 L 401.5569 275.5294 L 397.9237 271.4688 L 392.3805 267.6576 L 391.5657 265.6094 L 390.5906 265.8588 L 390.0429 263.7394 L 389.3216 262.9558 L 389.8827 259.75 L 389.8827 258.3253 L 387.4783 258.0937 L 388.8942 248.6012 L 389.896 244.8077 L 390.3101 243.9885 L 390.9646 243.4007 L 390.9112 242.2609 L 391.392 238.414 L 392.9014 236.5796 L 393.449 235.137 L 394.6646 233.3561 L 395.8266 233.3739 L 396.9353 232.43 L 397.5898 229.527 L 397.9104 228.9571 L 399.2728 229.4557 L 402.5454 229.1352 L 404.1883 228.4228 L 406.5926 226.0006 L 406.1385 224.3622 L 406.606 223.4182 L 406.6327 222.4209 L 406.2053 221.7263 L 404.9096 220.7646 L 405.0832 218.663 L 403.7208 217.3986 L 402.2515 218.0575 L 401.5569 217.6301 L 401.6638 217.078 L 402.1446 217.0602 L 402.6522 216.4012 L 402.532 215.9382 L 401.6103 215.0299 L 401.8508 213.9969 L 402.8793 213.6585 L 403.2399 212.305 L 403.6807 212.1803 L 403.6674 211.0049 L 404.3219 208.743 L 405.6442 206.6949 L 406.045 206.6593 L 406.1518 207.621 L 406.606 208.4759 L 408.6229 209.0458 L 410.2124 210.435 L 411.5081 210.6665 L 412.1492 211.6638 L 412.6969 211.8419 L 413.5785 211.3967 L 414.273 210.6843 L 414.6604 209.313 L 415.3016 208.5649 L 416.8644 207.9238 L 417.4788 207.1046 L 418.8145 206.7305 L 419.7362 206.036 L 421.4326 204.0591 L 422.1271 203.9344 L 424.4112 204.6824 L 425.7336 206.3922 L 425.6668 207.4073 L 425.0123 208.4047 L 424.0239 211.6104 L 424.1708 212.7858 L 424.5582 213.6051 L 424.5582 216.2053 L 425.0257 217.3273 L 425.747 217.826 L 426.8556 217.8438 L 427.6036 218.6987 L 428.9928 218.6809 L 431.0498 221.2455 L 431.5707 221.1386 L 433.0133 219.8741 L 434.8165 220.355 L 435.8718 219.5713 L 436.5129 219.6248 L 437.4613 221.2989 L 439.7187 221.2098 L 441.5353 223.2045 L 444.0731 222.3675 L 445.1017 220.9961 L 446.1969 220.1413 L 447.4392 220.3015 L 447.7197 220.6043 L 448.5078 219.8563 L 449.4828 218.2534 L 449.5496 215.671 L 450.498 214.5668 L 452.3547 213.9435 L 453.2362 212.8215 L 454.2915 212.2694 L 454.4651 211.8419 L 454.2781 210.6843 L 455.3467 208.0841 L 455.6539 207.9416 L 456.0813 208.8321 L 456.4019 210.3993 L 458.0048 211.6995 L 457.5106 213.7832 L 458.1651 214.7271 L 458.5124 215.8491 L 460.0351 215.4217 L 461.077 216.2587 L 461.7315 216.3478 L 464.3228 215.1189 L 464.7903 215.9382 L 466.0726 217.167 L 467.5018 219.2508 L 467.622 219.9097 L 468.8509 221.1386 L 470.2801 221.1742 L 471.9231 219.8919 L 472.2971 220.8893 L 472.0299 224.9677 L 472.7779 226.7665 L 473.566 226.7843 L 473.7931 227.1939 L 474.4342 227.4076 L 474.8884 228.1734 L 475.9837 229.1352 L 477.0923 231.1833 L 477.8938 231.5751 L 479.2429 233.4985 L 480.9659 234.1041 L 482.0746 233.4629 L 482.5955 232.804 L 483.1165 233.0177 L 482.7024 234.674 L 482.9695 235.2439 L 483.397 235.2439 L 483.8511 235.7069 L 483.9045 236.4193 L 483.5973 237.4345 L 482.836 237.5057 L 482.2082 238.2359 L 482.8627 239.821 L 483.3836 240.4443 L 481.8342 242.7062 L 481.567 243.561 L 481.0594 243.8816 L 480.7656 243.0089 L 481.2598 241.9047 L 481.2598 240.4265 L 481.4735 239.6251 L 481.0594 238.9483 L 480.0844 238.6099 L 479.4699 236.0809 L 477.9338 234.1931 L 477.0389 235.7782 L 475.1021 237.9332 L 474.5545 239.073 L 474.3675 239.8388 L 474.5678 241.7979 L 474.1804 242.9021 L 474.5545 244.1665 L 473.4859 248.2272 L 473.566 249.4204 L 475.5963 251.0233 L 476.1573 252.6083 L 475.7299 253.9263 L 474.9552 254.0509 L 474.4209 254.7455 L 473.9133 254.8702 L 474.7415 255.9031 L 474.8216 256.5799 L 475.8902 258.5034 L 476.4779 260.1953 L 476.7985 262.19 L 477.827 263.7928 L 477.9873 266.2684 L 479.5234 267.1767 L 479.9107 267.8713 L 480.3649 269.7769 L 480.0443 270.6496 L 480.3114 273.1429 L 481.6739 275.4226 L 483.21 276.6158 L 482.2616 278.379 L 481.5002 278.8955 L 481.527 280.997 L 481.1663 282.1903 L 479.136 284.4877 L 476.3443 285.3426 L 475.5429 284.9864 L 474.875 283.8466 L 473.8732 283.5616 L 473.1787 283.5794 L 472.6043 284.0069 L 471.9631 283.8288 L 471.6559 284.185 L 471.0816 284.274 L 470.4938 284.9508 L 469.9195 286.429 L 467.5152 288.4949 L 467.622 289.6525 L 467.1946 290.5786 L 467.0477 292.1637 L 467.6888 294.2474 L 469.5722 296.1175 L 470.6675 296.3134 L 471.1617 295.7435 L 471.6426 295.6722 L 473.3389 297.4888 L 474.0335 297.8806 L 476.3043 298.0587 L 479.2696 299.5013 L 480.0042 300.4808 L 481.4602 300.8727 L 482.2883 300.3918 L 483.7042 301.4782 L 483.958 303.0811 L 483.2233 303.7934 L 482.7158 305.7703 L 482.9829 306.3224 L 483.063 307.4979 L 482.7425 309.6528 L 481.7674 310.0447 L 481.193 311.5407 L 480.4049 311.2735 L 480.0577 310.8283 L 478.3613 311.1845 L 478.0808 309.7241 L 475.7032 306.4827 L 474.5812 305.3785 L 473.9934 303.2057 L 472.5375 301.3535 L 472.3505 302.6358 L 471.5891 304.3099 L 471.5758 305.9484 L 471.135 307.6225 L 470.6141 308.5308 L 469.7993 309.0473 L 469.4386 310.2049 L 468.6372 311.2379 L 468.6372 312.5736 L 468.4502 313.0367 L 466.4466 315.441 L 465.9791 316.7233 L 464.6968 317.0439 L 462.7065 316.8301 L 462.4127 318.1124 L 461.5979 319.0029 L 458.6593 324.0431 L 458.5791 325.7706 L 457.6308 328.9408 L 457.0431 327.6406 L 455.881 324.1856 L 455.6806 323.3663 Z" transform="matrix(1.0499999523162842,0,0,1.0499999523162842,-20.000028610229492,-13.324969291687012)" id="morropon" class="province-map-path"><title>Morropón</title></path>
<path d="M 315.2155 197.8257 L 318.2476 197.3983 L 319.7035 197.6654 L 320.3981 198.5915 L 321.6136 198.1463 L 321.8674 198.8052 L 321.7205 199.856 L 322.1479 200.515 L 323.8443 199.1792 L 324.7526 199.1436 L 325.6876 199.6245 L 325.7811 201.5123 L 326.0215 202.2959 L 325.7811 203.4536 L 325.928 204.7893 L 325.4605 206.0538 L 324.3652 206.9443 L 324.5522 209.9363 L 321.4132 266.7136 L 319.6901 266.4643 L 318.6616 265.8588 L 316.3241 263.5613 L 315.1754 263.3298 L 312.918 261.1926 L 312.2101 259.9816 L 311.1014 259.0911 L 309.2581 259.0198 L 306.7469 263.5969 L 306.5867 265.7697 L 307.1209 269.492 L 307.7888 272.0387 L 307.8422 279.0558 L 306.2794 279.4654 L 304.3159 283.241 L 303.3943 285.8947 L 302.6195 284.7905 L 302.4325 284.933 L 301.3907 283.9 L 300.9098 282.7958 L 299.7344 281.5669 L 295.42 275.7788 L 292.2276 272.7689 L 292.1608 272.3593 L 291.7868 272.4662 L 291.346 271.9141 L 290.7449 272.2703 L 290.1171 271.6825 L 289.8901 272.1634 L 289.5294 272.1634 L 288.9283 272.858 L 287.8865 272.858 L 287.9666 272.6621 L 287.4056 271.6825 L 287.2987 270.4359 L 286.7778 268.9042 L 286.1099 267.8713 L 285.6692 267.7644 L 285.5489 266.7314 L 285.1883 266.2862 L 284.9612 265.1464 L 284.1064 263.5613 L 282.5168 262.9202 L 282.3966 262.3324 L 279.6985 259.002 L 279.4313 258.3075 L 278.8703 257.9156 L 277.9887 256.5799 L 277.4678 256.4374 L 276.6931 255.4401 L 276.466 254.7455 L 276.3458 254.0687 L 276.653 253.855 L 276.5728 253.3742 L 277.2006 252.5727 L 277.1739 251.4329 L 277.3476 251.0945 L 277.7616 251.2904 L 278.0555 250.3999 L 278.5364 250.5424 L 278.7634 250.2931 L 279.3244 249.1711 L 279.3912 248.4765 L 279.7252 248.2806 L 279.6183 247.7285 L 280.0591 246.2859 L 280.0591 244.3625 L 279.5115 242.6883 L 279.2844 242.6349 L 279.2443 242.2431 L 278.8436 241.7444 L 278.7234 240.9074 L 278.8703 240.7471 L 278.3894 240.6046 L 278.5097 240.1059 L 279.1775 240.1594 L 279.3244 239.821 L 279.9522 240.0525 L 280.0324 239.3757 L 280.5132 239.4114 L 281.141 238.7168 L 281.0609 236.5974 L 280.767 235.0124 L 280.4331 234.0684 L 280.1793 233.926 L 280.206 233.0889 L 279.5382 232.4834 L 279.9522 232.145 L 279.9122 231.0052 L 280.5132 230.7024 L 281.0609 229.7229 L 281.0342 229.4201 L 281.8757 230.0613 L 281.9959 230.4175 L 282.8107 230.8093 L 284.0663 230.0256 L 284.8811 228.9393 L 286.0432 229.5804 L 287.3789 231.6998 L 288.1135 231.8066 L 288.9684 231.2545 L 290.5312 231.2545 L 291.0789 230.9161 L 291.8269 229.3667 L 292.4547 229.2776 L 293.2027 227.9419 L 293.7102 226.1075 L 294.2312 225.7157 L 294.4983 222.7415 L 294.2045 220.4618 L 293.3095 216.8643 L 292.4547 214.1394 L 290.8251 210.1856 L 289.5561 207.995 L 284.3601 200.978 L 282.4768 196.864 L 281.7688 196.1338 L 278.6566 190.5415 L 274.3422 184.0054 L 296.7691 178.5912 L 307.2679 176.454 L 311.6891 182.0107 L 311.6758 184.7534 L 311.3953 185.911 L 310.6873 186.944 L 310.3935 187.9769 L 310.5938 189.5442 L 309.218 192.9102 L 310.2866 193.4267 L 310.861 193.0883 L 310.8343 193.7473 L 311.5556 196.3297 L 312.5841 197.6832 L 313.0249 197.4517 L 315.2155 197.8257 Z M 274.9433 252.7686 L 275.1303 253.6591 L 275.531 253.9085 L 275.718 254.4071 L 275.2772 254.9592 L 274.6494 254.603 L 274.5693 253.7126 L 273.8613 253.018 L 274.2353 253.018 L 274.6093 252.4837 L 274.9433 252.7686 Z" transform="matrix(1.0499999523162842,0,0,1.0499999523162842,-20.000028610229492,-13.324969291687012)" id="paita" class="province-map-path"><title>Paita</title></path>
<path d="M 357.2909 302.0125 L 351.2267 303.1523 L 351.4404 297.3285 L 350.7993 295.9037 L 349.4235 296.2421 L 349.1296 296.0462 L 349.0094 296.438 L 348.0744 295.4585 L 344.3878 294.5324 L 343.3592 293.7132 L 339.8329 292.0034 L 339.7261 291.8431 L 340.4474 290.2581 L 340.4607 289.3854 L 338.7243 288.9045 L 338.4972 289.8128 L 337.6557 289.5813 L 337.442 289.2785 L 336.1062 290.2937 L 335.1846 289.6347 L 335.5853 289.4032 L 335.6788 288.388 L 332.9005 288.0319 L 307.7888 272.0387 L 307.1209 269.492 L 306.6 266.1081 L 306.7469 263.5969 L 309.2581 259.0198 L 311.1014 259.0911 L 312.2101 259.9816 L 312.918 261.1926 L 315.1754 263.3298 L 316.3241 263.5613 L 318.6616 265.8588 L 319.6901 266.4643 L 321.4132 266.7136 L 321.9742 267.4616 L 322.7356 269.3495 L 323.1096 267.9603 L 323.8443 267.2301 L 324.0981 264.9683 L 324.7258 263.8107 L 324.4587 260.8721 L 325.2601 258.6815 L 325.5273 257.0073 L 325.8612 256.5799 L 326.9031 256.2771 L 327.9449 256.4731 L 328.733 255.7607 L 331.1641 249.83 L 332.5265 247.7641 L 333.3413 244.3625 L 334.1694 242.8308 L 337.0813 238.699 L 342.5311 219.8385 L 343.052 209.6691 L 355.1671 204.1659 L 355.4342 202.2069 L 356.6497 200.141 L 357.6115 200.0341 L 358.0122 199.7135 L 358.4797 199.9807 L 359.575 199.0189 L 359.8822 196.1338 L 361.0844 195.9735 L 362.3132 194.7624 L 362.4869 194.2281 L 362.2331 192.3225 L 362.8208 191.8416 L 363.4486 189.3839 L 364.1699 188.2263 L 366.7345 185.6973 L 368.5244 185.2877 L 369.4059 186.1425 L 370.8352 186.6056 L 372.5983 185.8041 L 375.4702 186.8549 L 375.9777 186.0535 L 377.7142 185.5726 L 378.7427 186.0535 L 380.0918 186.2138 L 381.5611 184.9315 L 382.2824 182.9902 L 384.5531 182.2066 L 385.3011 180.764 L 385.7686 180.6571 L 386.5166 181.0311 L 387.9191 181.1558 L 389.0144 180.2475 L 389.3617 179.6064 L 389.6823 179.5707 L 389.2014 179.0008 L 387.9191 178.7337 L 387.9191 177.2199 L 389.0011 175.0827 L 389.3884 172.9633 L 390.2032 170.9687 L 389.9227 168.7781 L 390.1364 167.8341 L 390.6307 167.104 L 390.644 166.5697 L 390.3502 165.2696 L 389.6155 163.916 L 387.9859 162.7406 L 387.839 162.0994 L 386.5166 160.4609 L 386.3296 159.8554 L 386.5033 159.3745 L 387.9726 157.8429 L 388.1729 156.8634 L 389.2148 156.1688 L 388.2798 155.118 L 388.0928 154.2097 L 388.587 152.7137 L 389.5621 151.6451 L 392.514 149.4545 L 394.6646 149.0093 L 396.3609 146.6228 L 399.7938 145.3405 L 400.662 144.0938 L 401.4501 143.6308 L 401.9844 143.6486 L 402.7591 142.8471 L 403.0396 142.8471 L 404.1616 143.6308 L 405.7778 143.4349 L 406.5926 144.6281 L 407.6478 145.6254 L 408.9569 145.7857 L 410.8002 145.109 L 411.5749 145.6611 L 412.6435 145.946 L 415.3149 145.9994 L 416.103 147.4777 L 416.1164 149.0449 L 416.8644 150.9505 L 417.1716 152.5712 L 417.5055 153.2836 L 418.16 153.7823 L 418.4004 154.9221 L 419.1485 155.8304 L 419.3355 156.7565 L 419.2152 157.6826 L 419.8965 158.8937 L 420.5777 158.68 L 421.1387 159.1074 L 421.5528 158.306 L 422.1271 158.021 L 422.2073 157.273 L 422.4744 156.9346 L 423.73 156.5072 L 426.2679 156.6318 L 428.1245 156.0441 L 430.1014 156.0085 L 431.2101 155.4564 L 433.1602 156.7209 L 433.5209 157.5045 L 434.9368 159.0896 L 434.91 161.7967 L 435.2306 162.5803 L 434.6162 162.4378 L 433.6277 163.3283 L 432.7195 166.7834 L 431.9848 167.4423 L 431.1967 167.9232 L 430.2751 168.0301 L 429.5805 168.7246 L 425.6802 168.9384 L 423.9304 170.5412 L 423.5029 171.2892 L 423.3293 172.4825 L 424.2509 173.9785 L 424.7051 174.0854 L 424.8921 174.6553 L 425.3997 175.0471 L 425.6267 176.7212 L 426.0542 177.0952 L 425.8405 177.9323 L 425.1592 179.4995 L 424.5582 180.2297 L 423.5029 180.9599 L 420.7647 181.886 L 421.5394 183.382 L 420.5777 186.1069 L 420.6578 186.8549 L 421.3658 187.4426 L 422.9419 187.7098 L 423.5697 188.6715 L 423.5029 189.4373 L 423.1289 190.1141 L 423.5697 190.9333 L 423.4094 192.1444 L 420.9116 195.3858 L 419.9232 197.3805 L 420.0968 197.986 L 421.3257 199.3573 L 421.5928 200.4081 L 421.4459 201.3342 L 422.5679 204.0235 L 421.4326 204.0591 L 419.7362 206.036 L 418.8145 206.7305 L 417.4788 207.1046 L 416.8644 207.9238 L 415.3016 208.5649 L 414.6604 209.313 L 414.273 210.6843 L 413.5785 211.3967 L 412.6969 211.8419 L 412.1492 211.6638 L 411.5081 210.6665 L 410.2124 210.435 L 408.6229 209.0458 L 406.606 208.4759 L 406.1518 207.621 L 405.9915 206.6059 L 405.2168 207.1758 L 404.3887 208.5649 L 403.9212 209.9007 L 403.6674 211.0049 L 403.6807 212.1803 L 403.2399 212.305 L 402.8793 213.6585 L 401.8508 213.9969 L 401.6103 215.0299 L 402.532 215.9382 L 402.6522 216.4012 L 402.1446 217.0602 L 401.6638 217.078 L 401.5569 217.6301 L 402.2515 218.0575 L 403.7208 217.3986 L 405.0832 218.663 L 404.9096 220.7646 L 406.2053 221.7263 L 406.6327 222.4209 L 406.606 223.4182 L 406.1385 224.3622 L 406.5659 226.0897 L 404.1883 228.4228 L 402.5454 229.1352 L 399.2728 229.4557 L 397.9104 228.9571 L 397.5898 229.527 L 396.9353 232.43 L 395.8266 233.3739 L 394.6646 233.3561 L 393.449 235.137 L 392.9014 236.5796 L 391.392 238.414 L 390.9112 242.2609 L 390.9646 243.4007 L 390.3101 243.9885 L 389.896 244.8077 L 388.8942 248.6012 L 387.4783 258.0937 L 389.8827 258.3253 L 389.8827 259.75 L 389.2949 262.8667 L 390.0429 263.7394 L 390.5906 265.8588 L 391.5657 265.6094 L 392.3805 267.6576 L 397.9237 271.4688 L 401.5569 275.5294 L 419.1351 307.4444 L 421.8066 308.9939 L 422.3008 311.2379 L 424.4246 313.8737 L 425.1592 316.5808 L 426.2412 316.937 L 428.926 316.937 L 430.8494 318.0412 L 431.5841 318.1837 L 431.9848 317.9344 L 432.3321 318.344 L 433.414 318.5399 L 434.4025 319.466 L 435.431 319.929 L 435.8718 320.9798 L 438.5566 319.9647 L 439.732 320.4277 L 440.3465 320.3921 L 439.7053 326.1446 L 439.505 330.6683 L 439.6118 332.3246 L 440.1862 333.126 L 440.2129 333.5178 L 439.4782 334.8358 L 439.3313 335.7975 L 438.5699 337.5428 L 438.5032 339.6622 L 438.0757 342.4583 L 436.8602 345.86 L 437.0205 347.1423 L 436.6598 348.2287 L 436.9136 350.4549 L 436.1389 352.4139 L 435.8851 352.8592 L 433.6144 354.3018 L 431.7577 356.8842 L 431.544 357.7212 L 431.17 358.024 L 430.5823 359.431 L 429.0996 361.1229 L 425.6134 359.6981 L 424.2509 358.4871 L 421.8199 357.1869 L 421.2322 356.4211 L 417.8528 353.625 L 417.4922 353.0195 L 416.6506 352.7345 L 415.916 352.0221 L 413.3514 350.5261 L 410.6799 347.2491 L 408.4626 345.2544 L 404.5089 343.2419 L 403.5071 342.9748 L 402.7457 341.0692 L 402.1847 340.2855 L 401.2898 340.0896 L 400.328 339.306 L 396.775 337.3113 L 395.1454 337.1866 L 392.9815 337.7566 L 364.8244 323.865 L 364.3569 317.8631 L 362.4201 304.3099 L 357.2909 302.0125 Z" transform="matrix(1.0499999523162842,0,0,1.0499999523162842,-20.000028610229492,-13.324969291687012)" id="piura" class="province-map-path"><title>Piura</title></path>
<path d="M 322.9226 462.4423 L 323.3233 463.0835 L 322.3616 465.0069 L 322.2147 465.8974 L 321.8407 466.1467 L 322.1345 467.2865 L 321.5468 467.34 L 321.5067 467.6249 L 321.7739 467.7852 L 321.7338 468.6223 L 322.1746 469.2634 L 322.5085 469.1566 L 322.5887 469.9046 L 322.8425 470.1005 L 322.9894 470.7951 L 323.7775 471.2937 L 323.6172 471.8815 L 323.4035 471.9883 L 323.7775 472.3267 L 323.8843 472.8254 L 323.6573 473.2172 L 323.2565 473.0747 L 323.4035 473.4665 L 323.0295 473.7693 L 323.9244 474.8557 L 323.5103 475.39 L 323.2833 475.3543 L 323.2565 475.6927 L 323.3634 476.0845 L 323.9511 476.0311 L 323.4703 477.2778 L 323.6172 477.6162 L 324.0313 477.723 L 323.9511 478.3642 L 324.3251 478.5067 L 324.4453 479.0588 L 323.9511 479.3081 L 323.8843 478.7026 L 323.2565 478.2573 L 322.9493 478.9163 L 323.0295 479.5574 L 322.5085 479.5574 L 322.2147 479.0053 L 321.8006 479.2547 L 321.5869 478.8629 L 321.6136 479.4506 L 321.1728 479.6999 L 320.6118 478.9519 L 320.7988 478.5601 L 320.545 477.6696 L 320.7988 477.1353 L 320.6519 476.6366 L 320.9858 476.5298 L 320.9858 476.0311 L 321.5468 476.0311 L 321.4667 474.6954 L 321.253 474.4104 L 320.8389 474.8022 L 320.6118 474.4104 L 319.7703 473.9652 L 319.7703 473.4665 L 320.0909 473.4131 L 320.0241 472.5226 L 319.5833 472.6829 L 319.2093 472.3801 L 318.3544 472.3267 L 318.7952 472.1842 L 318.9421 471.7924 L 319.4631 471.7924 L 320.0909 470.9019 L 320.358 471.0444 L 320.2512 470.3498 L 320.6519 470.7416 L 320.5851 470.0471 L 320.7721 469.7621 L 320.5049 469.1566 L 321.0659 468.8182 L 321.0659 468.5154 L 320.4649 468.0702 L 320.4649 467.4825 L 320.0241 467.34 L 319.797 466.7344 L 320.2111 466.5385 L 320.6118 467.2331 L 321.0259 467.2865 L 321.5067 465.8974 L 321.1728 465.3453 L 321.5468 464.4192 L 321.44 464.063 L 321.8407 463.7246 L 322.3616 462.4779 L 322.9226 462.4423 Z M 320.732 462.7807 L 320.9457 463.1725 L 320.8789 463.4218 L 320.545 463.1369 L 320.5851 462.7273 L 320.732 462.7807 Z M 303.3943 285.8947 L 304.3159 283.241 L 306.2794 279.4654 L 307.8422 279.0558 L 307.7888 272.0387 L 332.9005 288.0319 L 335.6788 288.388 L 335.5853 289.4032 L 335.1846 289.6347 L 336.1062 290.2937 L 337.442 289.2785 L 337.6557 289.5813 L 338.4972 289.8128 L 338.7243 288.9045 L 340.4607 289.3854 L 340.4474 290.2581 L 339.7261 291.8431 L 339.8329 292.0034 L 343.3592 293.7132 L 344.3878 294.5324 L 348.0744 295.4585 L 349.0094 296.438 L 349.1296 296.0462 L 349.4235 296.2421 L 350.7993 295.9037 L 351.4404 297.3285 L 351.2267 303.1523 L 357.2909 302.0125 L 362.38 304.2565 L 364.3569 317.8631 L 364.8244 323.865 L 392.9815 337.7566 L 395.1454 337.1866 L 396.775 337.3113 L 400.328 339.306 L 401.2898 340.0896 L 402.1847 340.2855 L 402.7457 341.0692 L 403.5071 342.9748 L 404.5089 343.2419 L 408.4626 345.2544 L 410.6799 347.2491 L 413.3514 350.5261 L 415.916 352.0221 L 416.6506 352.7345 L 417.4922 353.0195 L 417.8528 353.625 L 421.2322 356.4211 L 421.8199 357.1869 L 424.2509 358.4871 L 425.6134 359.6981 L 429.0996 361.1229 L 428.5119 362.4764 L 427.3632 363.1354 L 426.7888 364.1683 L 426.0675 364.8807 L 425.9874 365.2904 L 425.4798 365.5041 L 424.6917 366.5905 L 423.9036 368.318 L 422.5278 369.9209 L 422.0603 371.0073 L 420.0033 372.0402 L 419.4557 375.4241 L 416.5304 374.872 L 412.8839 375.4953 L 410.4662 375.5131 L 406.4858 376.2611 L 404.5623 376.9913 L 396.7082 381.7287 L 394.5443 383.6878 L 390.5639 388.1046 L 389.5487 389.4938 L 387.4249 393.4475 L 352.4288 461.5518 L 349.6372 459.7174 L 348.8224 458.8269 L 343.3993 455.354 L 343.0253 454.8732 L 337.9496 452.3442 L 336.6138 451.4003 L 335.6387 451.151 L 330.5229 447.6424 L 327.2637 443.9915 L 326.7428 442.8516 L 325.4739 441.605 L 323.0963 437.954 L 321.1327 436.0127 L 320.358 434.7838 L 319.6901 434.4276 L 319.5833 433.9824 L 319.2761 433.9824 L 316.4577 431.3109 L 316.0169 430.5273 L 315.2422 430.1711 L 314.601 429.2806 L 314.1202 429.1382 L 312.8646 427.7134 L 312.2368 427.6065 L 310.9278 426.0749 L 310.0061 425.6296 L 309.7123 425.0419 L 306.8538 423.2966 L 304.6231 421.1772 L 303.9953 421.1238 L 302.1788 419.3962 L 300.5492 418.5058 L 300.2152 417.9537 L 298.5055 417.2591 L 298.3185 416.8138 L 297.2366 415.8877 L 296.5019 415.585 L 295.794 414.3917 L 295.7272 414.9438 L 295.5402 414.9438 L 294.4182 413.4122 L 293.8305 413.2519 L 292.3879 412.023 L 292.3077 411.6846 L 291.3861 411.186 L 291.1991 410.4914 L 290.5312 410.438 L 290.1973 409.6543 L 289.3825 409.0132 L 287.5258 405.9321 L 286.9648 404.5073 L 287.1919 404.0087 L 287.0717 403.225 L 286.0031 401.9249 L 286.0432 401.4441 L 285.6959 401.5331 L 285.2551 401.1947 L 283.0645 395.6025 L 282.2096 390.7939 L 282.8775 389.0663 L 282.2497 385.2016 L 282.5168 384.9701 L 282.3566 384.0262 L 282.7706 383.67 L 282.9176 382.548 L 282.5436 380.5177 L 282.9176 378.1846 L 282.2096 375.1213 L 283.3984 373.2869 L 284.1064 373.2335 L 284.5872 371.2032 L 285.6291 368.3892 L 285.6959 366.3589 L 286.1099 366.0562 L 287.4857 366.0562 L 287.9265 366.7151 L 289.0485 366.6617 L 289.7832 365.4685 L 290.1171 364.4889 L 290.0103 362.797 L 290.3442 362.9573 L 290.9319 361.764 L 291.3059 359.6803 L 291.0789 357.8103 L 291.4529 357.1513 L 292.7886 356.5102 L 292.9756 356.1718 L 293.5633 356.1718 L 295.5001 358.5939 L 296.355 360.5708 L 296.9026 360.8736 L 297.0496 361.9599 L 299.2134 364.1327 L 300.3889 364.4355 L 300.99 363.8834 L 301.03 364.4889 L 301.8448 364.7204 L 302.3791 365.5041 L 303.6614 364.9876 L 304.0488 365.9315 L 305.7585 365.9671 L 306.5733 366.5727 L 306.7603 367.0535 L 307.8289 366.8754 L 308.4834 367.3385 L 310.0996 367.3029 L 313.1718 365.5931 L 315.496 363.2244 L 317.4194 360.1255 L 318.9956 354.9429 L 320.3313 352.6277 L 320.7988 351.3097 L 321.7872 347.1957 L 322.4417 339.8225 L 322.602 334.6933 L 322.3349 329.8669 L 321.9475 328.0325 L 320.9457 324.9692 L 320.4649 321.7812 L 319.6234 318.4686 L 319.1692 317.5782 L 318.3544 314.408 L 318.0739 313.9806 L 316.5111 309.5104 L 316.1772 307.1595 L 311.8094 298.0053 L 308.1227 292.0212 L 306.0924 289.8663 L 303.3943 285.8947 Z" transform="matrix(1.0499999523162842,0,0,1.0499999523162842,-20.000028610229492,-13.324969291687012)" id="sechura" class="province-map-path"><title>Sechura</title></path>
<path d="M 325.4605 206.0538 L 325.928 204.7893 L 325.7811 203.4536 L 326.0215 202.2959 L 325.7811 201.5123 L 325.6609 199.5354 L 324.7526 199.1436 L 323.8443 199.1792 L 322.1479 200.515 L 321.7205 199.856 L 321.8674 198.8052 L 321.6136 198.1463 L 320.3981 198.5915 L 319.7035 197.6654 L 318.2476 197.3983 L 315.2155 197.8257 L 313.7328 197.4517 L 312.5841 197.6832 L 311.3151 195.7954 L 310.861 193.0883 L 310.2866 193.4267 L 309.2448 193.0171 L 310.5938 189.5442 L 310.3935 187.9769 L 310.6072 187.1399 L 311.3953 185.911 L 311.6758 184.7534 L 311.6891 182.0107 L 307.2679 176.454 L 322.5352 171.966 L 322.8558 171.681 L 322.3349 168.974 L 321.9475 168.4041 L 321.5468 166.5162 L 321.0259 165.5367 L 321.1194 165.0915 L 320.9057 164.8599 L 320.4248 162.7762 L 319.797 161.9213 L 319.6634 161.1377 L 319.3562 161.1199 L 318.7418 160.3363 L 318.3544 160.3897 L 317.8736 159.9979 L 317.4728 159.2499 L 316.471 158.5375 L 314.9216 155.7235 L 313.7729 154.1207 L 313.5992 153.248 L 313.0917 153.1768 L 312.8512 151.5205 L 312.0631 151.2177 L 311.0747 148.9024 L 311.2884 148.5819 L 312.0097 148.5106 L 312.5841 148.0298 L 313.7194 148.2791 L 315.0552 146.4625 L 315.2822 145.6254 L 316.1238 145.0377 L 317.0053 145.3227 L 317.3393 144.8952 L 317.8602 141.832 L 317.366 141.2621 L 316.7783 141.0662 L 316.658 139.4811 L 316.4176 139.2674 L 316.3642 138.6084 L 315.723 137.7714 L 315.6429 136.8096 L 314.6545 136.5781 L 314.1869 136.9699 L 313.8397 136.1329 L 313.3989 135.7232 L 313.3989 134.8862 L 313.0649 133.7998 L 313.1184 133.2655 L 313.7061 132.6065 L 313.3989 131.2174 L 318.2075 126.2307 L 319.4364 125.7854 L 319.6234 125.269 L 319.0089 124.4853 L 318.9822 123.3989 L 319.8104 122.4372 L 319.5966 121.4755 L 319.7436 121.0481 L 320.1977 120.5672 L 322.5085 119.9617 L 322.5219 119.552 L 321.7605 118.4478 L 321.9342 117.6286 L 321.3598 116.2572 L 322.1612 115.5627 L 324.993 110.7006 L 324.9396 108.884 L 325.4739 106.9784 L 324.8861 107.3524 L 324.0847 106.8537 L 322.7757 106.6578 L 320.6919 104.2179 L 319.7703 103.7014 L 319.1024 103.7014 L 319.0891 102.8643 L 318.6483 101.582 L 318.5815 100.745 L 318.9555 99.338 L 320.1309 98.0557 L 319.9974 96.7022 L 320.3447 95.8829 L 320.2779 94.8678 L 319.797 95.1884 L 318.8754 95.0281 L 317.2057 95.2596 L 316.1505 93.7636 L 315.2422 93.354 L 314.6812 94.2979 L 313.9064 94.9568 L 311.6891 92.1785 L 311.048 91.0387 L 310.9545 90.0057 L 311.9964 86.1945 L 311.9964 84.1641 L 312.3036 82.3654 L 313.9064 80.1213 L 314.6144 78.7144 L 314.3472 78.1979 L 313.4924 77.9842 L 312.8779 77.2184 L 312.6509 75.01 L 311.8895 73.7989 L 312.1433 72.8194 L 310.9678 72.2495 L 311.1014 70.2904 L 311.6758 69.9876 L 312.3303 69.1862 L 313.3054 69.0793 L 314.1335 69.9164 L 315.5895 70.3438 L 316.4978 71.5014 L 317.2858 71.6261 L 317.8736 72.6947 L 318.7819 72.9262 L 320.7854 72.5166 L 321.5067 72.107 L 322.4417 72.3563 L 323.2165 71.8933 L 324.2316 72.1426 L 325.2334 71.5549 L 326.2352 71.4124 L 328.7464 69.8273 L 330.5229 70.611 L 331.3377 70.3438 L 331.6583 70.7 L 331.7785 69.863 L 332.3395 69.9698 L 333.3546 69.489 L 334.0092 69.863 L 334.4099 69.7917 L 334.7839 70.4685 L 335.3315 70.611 L 336.1997 70.2726 L 336.4669 70.5575 L 336.6138 71.3412 L 337.0813 70.8959 L 337.8427 70.6822 L 337.8293 70.326 L 338.0831 70.3972 L 338.4037 70.8247 L 338.7777 70.8069 L 338.8578 71.8042 L 339.2986 72.3741 L 339.7261 72.4454 L 340.1001 73.1756 L 340.6744 73.0331 L 341.369 72.2673 L 341.9968 72.3741 L 342.5311 72.0179 L 343.426 72.4988 L 344.0405 73.5318 L 345.2426 74.2085 L 345.6033 75.2771 L 346.0441 75.4374 L 346.2311 75.9717 L 347.5668 77.3074 L 348.2079 77.5746 L 348.5686 78.2157 L 349.8108 78.9815 L 349.9444 79.4446 L 351.1198 79.2665 L 351.3202 79.5158 L 351.7476 79.2131 L 352.7227 79.4802 L 352.9631 79.8186 L 354.5126 78.6788 L 354.9667 77.0225 L 355.4342 77.0759 L 355.3942 76.0785 L 355.7815 76.4882 L 357.3577 76.7909 L 357.2909 75.384 L 357.5046 74.7784 L 357.7851 74.6716 L 357.7851 74.0126 L 358.64 73.1934 L 359.1208 73.3715 L 359.1075 72.6235 L 359.575 72.1248 L 359.5483 71.0206 L 361.1912 69.9164 L 361.1111 68.3847 L 361.7923 68.4026 L 361.6721 67.1381 L 362.4067 66.7819 L 362.4602 65.9092 L 362.8876 65.5352 L 363.275 64.6447 L 363.3551 63.7364 L 363.9829 63.5761 L 364.1699 62.3116 L 365.0515 60.2101 L 365.2785 59.9429 L 365.8663 60.1389 L 365.8663 58.7141 L 366.2269 57.5386 L 366.8681 56.7194 L 367.015 56.0961 L 367.576 56.007 L 368.0702 55.0987 L 368.8717 54.6357 L 369.3124 54.8494 L 369.6063 54.1726 L 370.3142 53.7274 L 370.8085 53.8164 L 371.1691 53.2999 L 371.7435 54.2617 L 371.7835 55.4015 L 372.3579 55.6686 L 372.6918 56.7372 L 374.2947 59.1593 L 374.3214 59.9786 L 373.6268 61.0293 L 373.7604 61.3677 L 374.2279 61.5636 L 375.1362 60.6197 L 375.8041 60.8334 L 376.1514 60.032 L 376.3918 60.1389 L 375.9644 61.4568 L 376.1514 61.5814 L 376.1514 75.7936 L 376.6189 75.4908 L 376.846 74.4935 L 377.9412 73.5674 L 378.4889 73.4249 L 379.2235 74.1729 L 380.212 74.636 L 380.5726 76.3101 L 381.5477 77.2718 L 384.3127 74.5647 L 385.0072 75.4908 L 385.595 75.0278 L 386.4365 73.7633 L 386.9975 73.6386 L 387.4516 74.2263 L 387.4516 75.3662 L 389.0411 77.8595 L 389.3484 77.3965 L 389.7892 77.343 L 389.7624 76.3991 L 390.3769 76.1854 L 390.5372 75.7758 L 390.831 75.8114 L 391.2585 76.5238 L 392.1534 76.7197 L 392.6877 75.7936 L 393.6895 75.099 L 394.344 73.7633 L 395.2122 74.2441 L 394.4508 75.7936 L 393.3288 77.0937 L 393.2353 76.9156 L 392.5541 78.1267 L 392.1534 78.3048 L 391.0581 80.7091 L 390.6707 81.2612 L 390.4704 81.1721 L 390.3769 81.7955 L 389.2281 83.0956 L 388.8942 84.0929 L 388.8541 84.4669 L 389.0411 84.5738 L 388.8541 85.2149 L 387.1978 86.6397 L 387.1978 88.1357 L 386.9574 89.0974 L 385.408 90.5756 L 384.8336 90.6825 L 384.0856 92.1429 L 383.3643 92.6772 L 381.2004 95.3308 L 380.399 97.2543 L 379.1033 99.2846 L 378.8362 100.2463 L 378.8896 101.2437 L 378.4622 101.7779 L 378.195 102.9712 L 376.9261 104.111 L 376.699 105.0727 L 375.8041 106.5509 L 375.6972 107.8511 L 376.6055 108.6881 L 376.4987 109.3115 L 376.0178 108.9731 L 375.8041 109.5608 L 376.3784 110.3622 L 375.4702 111.2349 L 376.2048 113.2296 L 376.0178 113.8173 L 376.0312 115.3489 L 376.325 115.7586 L 376.3784 116.5422 L 376.7925 116.934 L 376.4185 117.6286 L 376.4586 118.0382 L 377.1665 118.2163 L 377.594 119.8726 L 378.008 119.8014 L 379.3438 120.3535 L 379.2903 121.0124 L 380.0383 121.6892 L 380.212 121.5823 L 380.1185 120.4781 L 380.4791 120.4781 L 380.8131 121.2261 L 381.2271 121.2261 L 381.7347 121.6358 L 381.9084 122.1166 L 382.4694 122.3303 L 383.2307 123.3989 L 383.0704 124.2538 L 384.3394 125.2868 L 385.1275 123.6126 L 387.6386 124.0579 L 388.4534 122.829 L 389.0278 122.7578 L 390.3769 121.7961 L 392.1668 121.2974 L 392.7411 120.6384 L 393.0216 119.4096 L 394.2906 119.1958 L 395.0252 118.6437 L 395.6129 117.2368 L 397.0822 116.3819 L 397.9237 115.2955 L 398.2977 114.3694 L 398.6317 114.6009 L 398.5916 115.1887 L 399.0457 116.1504 L 399.8338 116.6847 L 400.0475 116.5244 L 400.141 115.6517 L 400.8623 114.9571 L 401.4768 115.0462 L 402.0779 116.1504 L 402.7324 116.3641 L 402.9194 116.8628 L 403.7208 116.7915 L 403.8944 117.4505 L 404.2417 117.0943 L 403.8811 116.1682 L 404.6424 116.3641 L 404.923 117.219 L 405.9381 117.8779 L 405.8045 119.4096 L 406.232 119.5877 L 406.9666 120.4781 L 407.3406 120.3713 L 407.6078 120.959 L 407.4876 121.6892 L 406.2854 122.2057 L 406.1118 123.3633 L 406.3655 123.3633 L 406.606 123.9332 L 406.9132 123.6839 L 406.9399 124.236 L 407.5276 124.8771 L 407.3273 125.269 L 407.4742 125.6786 L 407.1937 126.1416 L 407.6211 127.4061 L 407.3406 128.2076 L 407.7681 128.6884 L 407.6478 129.1871 L 407.2204 128.9912 L 406.2453 130.22 L 406.6193 130.6653 L 406.4991 131.1818 L 406.7262 131.8585 L 406.3388 133.4436 L 406.5659 134.1916 L 407.1937 134.8328 L 407.0601 135.189 L 407.4208 135.3314 L 407.4341 135.8301 L 407.6078 135.6342 L 408.2489 135.8657 L 408.3023 137.5576 L 408.8901 138.9468 L 408.7966 139.392 L 409.1706 139.4989 L 409.1305 140.9415 L 408.5828 142.4553 L 406.8598 144.076 L 406.5926 144.6281 L 405.7778 143.4349 L 404.1616 143.6308 L 402.7591 142.8471 L 401.9844 143.6486 L 401.4501 143.6308 L 400.662 144.0938 L 399.7938 145.3405 L 396.3609 146.6228 L 394.6646 149.0093 L 392.514 149.4545 L 389.5621 151.6451 L 388.587 152.7137 L 388.1329 153.7823 L 388.1195 154.7084 L 389.2148 156.1688 L 388.1729 156.8634 L 387.9726 157.8429 L 386.5033 159.3745 L 386.3296 159.8554 L 386.5166 160.4609 L 387.839 162.0994 L 387.9859 162.7406 L 389.6155 163.916 L 390.3502 165.2696 L 390.644 166.5697 L 390.6307 167.104 L 390.1364 167.8341 L 389.9227 168.7781 L 390.2032 170.9687 L 389.3884 172.9633 L 389.0011 175.0827 L 387.9191 177.2199 L 387.9191 178.7337 L 389.2014 179.0008 L 389.6823 179.5707 L 389.3617 179.6064 L 389.0144 180.2475 L 387.9191 181.1558 L 386.5166 181.0311 L 385.7686 180.6571 L 385.3011 180.764 L 384.5531 182.2066 L 382.2824 182.9902 L 381.5611 184.9315 L 380.0918 186.2138 L 378.7427 186.0535 L 377.7142 185.5726 L 375.9777 186.0535 L 375.4702 186.8549 L 372.5983 185.8041 L 370.8352 186.6056 L 369.4059 186.1425 L 368.5244 185.2877 L 366.7345 185.6973 L 364.1699 188.2263 L 363.4486 189.3839 L 362.8208 191.8416 L 362.2331 192.3225 L 362.4869 194.2281 L 362.3132 194.7624 L 361.0844 195.9735 L 359.8822 196.1338 L 359.575 199.0189 L 358.4797 199.9807 L 358.0122 199.7135 L 357.6115 200.0341 L 356.6497 200.141 L 355.4342 202.2069 L 355.1671 204.1659 L 343.052 209.6691 L 342.5311 219.8385 L 337.0813 238.699 L 334.1694 242.8308 L 333.3413 244.3625 L 332.5265 247.7641 L 331.1641 249.83 L 328.733 255.7607 L 327.9449 256.4731 L 326.9031 256.2771 L 325.8612 256.5799 L 325.5273 257.0073 L 325.2601 258.6815 L 324.4587 260.8721 L 324.7258 263.8107 L 324.0981 264.9683 L 323.8443 267.2301 L 323.1096 267.9603 L 322.7356 269.3495 L 321.9742 267.4616 L 321.4132 266.7136 L 324.4721 209.4198 L 324.4053 206.784 L 325.4605 206.0538 Z" transform="matrix(1.0499999523162842,0,0,1.0499999523162842,-20.000028610229492,-13.324969291687012)" id="sullana" class="province-map-path"><title>Sullana</title></path>
<path d="M 274.3422 184.0054 L 267.8505 174.4594 L 265.1524 169.9179 L 260.1033 162.7406 L 258.9947 160.5678 L 258.7275 160.4609 L 258.5405 159.5704 L 258.8077 159.7664 L 258.8745 159.6773 L 258.3936 158.2881 L 258.6207 157.5936 L 259.2885 157.4511 L 259.8362 158.0388 L 259.7694 157.5936 L 260.504 157.3442 L 261.252 156.3647 L 261.773 153.0343 L 262.4408 151.9123 L 262.4809 150.1135 L 263.0019 148.8846 L 262.9217 146.4625 L 263.5896 144.0938 L 264.1773 143.0965 L 264.2174 141.0662 L 264.8452 140.5319 L 265.1123 141.173 L 265.2993 140.5319 L 265.9271 140.2291 L 265.1123 137.6645 L 265.0054 136.7562 L 265.2592 136.311 L 265.1791 135.0821 L 263.1488 130.8256 L 262.6546 127.5664 L 261.9199 125.6251 L 262.0268 125.0374 L 261.6528 124.0579 L 262.2138 123.5058 L 262.147 123.114 L 262.8149 122.4728 L 262.4809 120.3357 L 263.1087 120.1932 L 263.4426 119.552 L 263.6564 119.552 L 263.5896 119.3027 L 264.0036 119.0534 L 264.2975 119.4986 L 264.8452 119.3917 L 265.513 118.804 L 265.66 117.967 L 265.887 118.1629 L 266.1141 117.4683 L 266.034 116.934 L 266.8888 115.153 L 267.0758 115.153 L 267.6635 111.1815 L 267.8505 110.7897 L 268.3448 110.6472 L 268.6386 109.7033 L 268.7455 107.8154 L 268.9325 107.673 L 268.7455 107.5839 L 268.8256 105.3043 L 268.6386 104.859 L 268.9993 104.6097 L 269.0794 104.2179 L 268.9993 99.3558 L 268.3047 95.1527 L 267.5567 93.6211 L 267.8906 93.2827 L 268.3715 91.199 L 268.5986 88.9728 L 268.4116 87.8864 L 268.8256 86.9959 L 269.2263 86.6575 L 269.4935 85.5533 L 270.4552 83.7367 L 270.4953 83.1312 L 271.27 83.238 L 272.0447 82.5435 L 272.9397 82.5435 L 273.9815 81.0653 L 274.3823 79.872 L 274.6093 79.872 L 275.3173 78.8925 L 276.6129 78.5897 L 277.6548 77.4499 L 278.4295 77.3965 L 279.5782 76.7019 L 280.1392 75.8114 L 280.206 75.2771 L 281.2078 73.9948 L 281.662 72.8016 L 282.6237 71.359 L 282.8775 70.326 L 283.2515 70.326 L 283.4385 69.9698 L 283.5854 70.3794 L 284.2934 70.5219 L 285.4822 69.7383 L 289.0753 61.3143 L 289.8633 60.8334 L 290.5312 59.747 L 290.7049 59.8895 L 291.4529 59.0525 L 292.0406 58.8922 L 292.5348 58.162 L 292.7485 58.3579 L 293.4565 58.3045 L 293.4965 58.0017 L 293.8705 58.1976 L 294.6452 57.2181 L 295.2063 57.414 L 296.2081 55.3302 L 295.9008 55.2412 L 295.981 54.8316 L 296.355 54.2973 L 296.5019 54.5466 L 296.8358 54.1548 L 297.1564 54.4576 L 297.3301 55.3302 L 297.7976 55.6686 L 298.1048 56.5769 L 298.9196 57.6277 L 299.5474 57.8236 L 300.2286 59.0703 L 301.2838 59.1593 L 302.6195 58.4291 L 303.5011 59.658 L 304.2892 59.6936 L 304.4896 60.2279 L 305.0506 60.5663 L 305.5181 61.3321 L 306.3863 61.3677 L 306.9072 62.8816 L 306.9206 63.683 L 307.3614 64.0392 L 307.6953 64.8228 L 306.5599 68.6875 L 307.0007 69.4177 L 307.8422 69.667 L 309.779 68.6875 L 310.4202 69.0259 L 310.7541 69.9698 L 311.1014 70.2904 L 310.9678 72.2495 L 312.1433 72.8194 L 311.8895 73.7989 L 312.6509 75.01 L 312.8779 77.2184 L 313.4924 77.9842 L 314.3472 78.1979 L 314.601 78.5363 L 314.5209 79.124 L 312.3036 82.3654 L 311.9964 84.1641 L 311.9964 86.1945 L 310.9545 90.0057 L 311.235 91.4305 L 313.9064 94.9568 L 314.6812 94.2979 L 315.2422 93.354 L 316.1505 93.7636 L 317.2057 95.2596 L 318.8754 95.0281 L 319.797 95.1884 L 320.2779 94.8678 L 320.3447 95.8829 L 319.9974 96.7022 L 320.1309 98.0557 L 318.9555 99.338 L 318.5815 100.745 L 318.6483 101.582 L 319.0891 102.8643 L 319.1024 103.7014 L 319.7703 103.7014 L 320.6919 104.2179 L 322.7757 106.6578 L 324.0847 106.8537 L 324.8861 107.3524 L 325.4739 106.9784 L 324.9396 108.884 L 324.993 110.7006 L 322.1612 115.5627 L 321.3598 116.2572 L 321.9342 117.6286 L 321.7605 118.4478 L 322.5219 119.552 L 322.5085 119.9617 L 320.1977 120.5672 L 319.7436 121.0481 L 319.5966 121.4755 L 319.8104 122.4372 L 318.9822 123.3989 L 319.0089 124.4853 L 319.6234 125.269 L 319.4364 125.7854 L 318.2075 126.2307 L 313.3989 131.2174 L 313.7061 132.6065 L 313.1184 133.2655 L 313.0649 133.7998 L 313.3989 134.8862 L 313.3989 135.7232 L 313.8397 136.1329 L 314.1869 136.9699 L 314.6545 136.5781 L 315.6429 136.8096 L 315.723 137.7714 L 316.3642 138.6084 L 316.4176 139.2674 L 316.658 139.4811 L 316.7783 141.0662 L 317.366 141.2621 L 317.8602 141.832 L 317.3393 144.8952 L 317.0053 145.3227 L 316.1238 145.0377 L 315.2822 145.6254 L 315.0552 146.4625 L 313.7194 148.2791 L 312.5841 148.0298 L 312.0097 148.5106 L 311.2884 148.5819 L 311.0747 148.9024 L 312.0631 151.2177 L 312.8512 151.5205 L 313.0917 153.1768 L 313.5992 153.248 L 313.7729 154.1207 L 314.9216 155.7235 L 316.471 158.5375 L 317.4728 159.2499 L 317.8736 159.9979 L 318.3544 160.3897 L 318.7418 160.3363 L 319.3562 161.1199 L 319.6634 161.1377 L 319.797 161.9213 L 320.4248 162.7762 L 320.9057 164.8599 L 321.1194 165.0915 L 321.0259 165.5367 L 321.5468 166.5162 L 321.9475 168.4041 L 322.3349 168.974 L 322.8558 171.681 L 322.5352 171.966 L 307.2679 176.454 L 292.9355 179.5351 L 274.3422 184.0054 Z" transform="matrix(1.0499999523162842,0,0,1.0499999523162842,-20.000028610229492,-13.324969291687012)" id="talara" class="province-map-path"><title>Talara</title></path><text transform="matrix(1 0 0 1 449.0034 176.2867)" style="font-family:'Tahoma'; font-size:12px;" class="province-map-label">Ayabaca</text>
<text transform="matrix(0.4356 -0.9001 0.9001 0.4356 492.1009 341.2247)" style="font-family:'Tahoma'; font-size:12px;" class="province-map-label">Huancabamba</text>
<text transform="matrix(1 0 0 1 410.006 266.4345)" style="font-family:'Tahoma'; font-size:12px;" class="province-map-label">Morropón</text>
<text transform="matrix(1 0 0 1 283.7814 248.1476)" style="font-family:'Tahoma'; font-size:12px;" class="province-map-label">Paita</text>
<text transform="matrix(1 0 0 1 341.8733 269.492)" style="font-family:'Tahoma'; font-size:12px;" class="province-map-label">Piura</text>
<text transform="matrix(1 0 0 1 322.3226 389.2127)" style="font-family:'Tahoma'; font-size:12px;" class="province-map-label">Sechura</text>
<text transform="matrix(1 0 0 1 335.9214 149.526)" style="font-family:'Tahoma'; font-size:12px;" class="province-map-label">Sullana</text>
<text transform="matrix(1 0 0 1 269.5037 123.681)" style="font-family:'Tahoma'; font-size:12px;" class="province-map-label">Talara</text>
</svg>